<svg width="35" height="35" viewBox="0 0 35 35" fill="none" xmlns="http://www.w3.org/2000/svg">
<path d="M17.8571 14.3181V21.0954H27.4675C27.0455 23.275 25.7791 25.1205 23.8798 26.3614L29.6753 30.7682C33.0519 27.7138 35 23.2274 35 17.8978C35 16.657 34.8864 15.4637 34.6753 14.3183L17.8571 14.3181Z" fill="#4285F4"/>
<path d="M7.84932 20.8309L6.54221 21.8114L1.91547 25.3432C4.8538 31.0545 10.8761 35 17.8567 35C22.678 35 26.7202 33.4409 29.6749 30.7682L23.8794 26.3614C22.2885 27.4114 20.2592 28.0478 17.8567 28.0478C13.2138 28.0478 9.26907 24.9774 7.85662 20.841L7.84932 20.8309Z" fill="#34A853"/>
<path d="M1.91547 9.65681C0.697986 12.0113 0 14.6681 0 17.4999C0 20.3317 0.697986 22.9885 1.91547 25.343C1.91547 25.3588 7.85719 20.8248 7.85719 20.8248C7.50004 19.7748 7.28894 18.6612 7.28894 17.4997C7.28894 16.3382 7.50004 15.2246 7.85719 14.1746L1.91547 9.65681Z" fill="#FBBC05"/>
<path d="M17.857 6.96818C20.487 6.96818 22.8246 7.85906 24.6915 9.57727L29.8052 4.56597C26.7045 1.7342 22.6786 0 17.857 0C10.8765 0 4.8538 3.92954 1.91547 9.65683L7.85701 14.175C9.26927 10.0386 13.2142 6.96818 17.857 6.96818Z" fill="#EA4335"/>
</svg>
