<svg width="35" height="35" viewBox="0 0 35 35" fill="none" xmlns="http://www.w3.org/2000/svg">
<path d="M21.7013 0.510886L21.3085 2.10191C22.8566 2.48451 24.3383 3.09796 25.7037 3.92164L26.544 2.51458C25.041 1.60439 23.408 0.928724 21.7013 0.510886ZM13.2987 0.510886L13.6915 2.10191C12.1434 2.48451 10.6617 3.09796 9.29629 3.92164L8.44609 2.51458C9.95302 1.60519 11.5892 0.929609 13.2987 0.510886ZM32.4854 8.45108C33.3948 9.95627 34.0704 11.5908 34.4891 13.2987L32.8981 13.6915C32.5155 12.1434 31.9021 10.6618 31.0784 9.29631L32.4854 8.45108ZM33.3605 17.5C33.3606 16.7045 33.3008 15.91 33.1815 15.1234L34.8024 14.8748C35.0659 16.6134 35.0659 18.3817 34.8024 20.1202L33.1815 19.8766C33.3006 19.09 33.3604 18.2956 33.3605 17.5ZM8.45603 32.4805L9.29629 31.0784C10.6596 31.9028 12.1397 32.5164 13.6865 32.8981L13.2937 34.4892C11.5891 34.0673 9.95811 33.3901 8.45603 32.4805ZM1.63949 17.5C1.63956 18.2956 1.69939 19.09 1.81848 19.8766L0.197628 20.1202C-0.0658798 18.3817 -0.0658798 16.6134 0.197628 14.8748L1.81848 15.1234C1.6992 15.91 1.63937 16.7045 1.63949 17.5ZM0.51086 21.6963L2.10188 21.3036C2.48358 22.8535 3.09707 24.3369 3.92162 25.7037L2.51455 26.549C1.60434 25.0424 0.928703 23.4062 0.51086 21.6963ZM15.1234 33.1815C16.6988 33.4202 18.3012 33.4202 19.8766 33.1815L20.1202 34.8024C18.3833 35.0659 16.6167 35.0659 14.8798 34.8024L15.1234 33.1815ZM4.73204 26.9069C5.67706 28.1884 6.81018 29.3199 8.09308 30.263L7.11858 31.5855C5.70552 30.5453 4.45542 29.3002 3.40951 27.8914L4.73204 26.9069ZM8.09308 4.73207C6.81006 5.67699 5.67697 6.81009 4.73204 8.0931L3.40951 7.10866C4.45173 5.69852 5.6985 4.45176 7.10863 3.40953L8.09308 4.73207ZM30.268 8.0931C29.323 6.81009 28.1899 5.67699 26.9069 4.73207L27.8914 3.40953C29.3015 4.45176 30.5483 5.69852 31.5905 7.10866L30.268 8.0931ZM2.51455 8.45108L3.92162 9.29631C3.09718 10.6596 2.48366 12.1398 2.10188 13.6865L0.51086 13.2938C0.929657 11.5874 1.60526 9.95452 2.51455 8.45108ZM19.8766 1.81851C18.3012 1.57982 16.6988 1.57982 15.1234 1.81851L14.8798 0.197653C16.6167 -0.0658844 18.3833 -0.0658844 20.1202 0.197653L19.8766 1.81851ZM29.4277 32.0231L32.8136 32.8086L32.0231 29.4227L33.619 29.0498L34.4096 32.4357C34.459 32.6457 34.4666 32.8633 34.4319 33.0761C34.3972 33.289 34.3209 33.4929 34.2073 33.6763C34.0937 33.8596 33.945 34.0187 33.7699 34.1446C33.5947 34.2704 33.3965 34.3605 33.1865 34.4096C32.9409 34.4643 32.6863 34.4643 32.4407 34.4096L29.0548 33.629L29.4277 32.0231ZM33.281 27.5881L31.68 27.956L31.1331 25.6093C31.9317 24.2695 32.5266 22.8184 32.8981 21.3036L34.4891 21.6963C34.1313 23.1464 33.5899 24.5448 32.8782 25.8579L33.281 27.5881ZM25.6242 31.1381L27.9709 31.685L27.598 33.2859L25.8728 32.8832C24.5607 33.5971 23.162 34.1385 21.7112 34.4941L21.3185 32.9031C22.8286 32.5267 24.2746 31.9286 25.6092 31.1281L25.6242 31.1381ZM17.5 3.28026C25.3557 3.28523 31.7148 9.65429 31.7148 17.505C31.7105 20.179 30.9541 22.7978 29.5321 25.0623L30.8994 30.8994L25.0673 29.5321C18.4198 33.7135 9.63935 31.7198 5.45795 25.0773C1.27654 18.4347 3.26532 9.65429 9.90784 5.46791C12.1819 4.03789 14.8137 3.27953 17.5 3.28026Z" fill="#3A76F0"/>
<path d="M6.576 22V20.836L10.95 15.07H6.84V13.6H13.008V14.764L8.604 20.53H13.008V22H6.576ZM16.4121 22.144C15.7441 22.144 15.2141 21.964 14.8221 21.604C14.4341 21.24 14.2401 20.748 14.2401 20.128C14.2401 19.728 14.3401 19.378 14.5401 19.078C14.7441 18.774 15.0261 18.54 15.3861 18.376C15.7501 18.208 16.1741 18.124 16.6581 18.124C16.9261 18.124 17.1841 18.15 17.4321 18.202C17.6841 18.25 17.9041 18.32 18.0921 18.412V18.028C18.0921 17.684 17.9941 17.426 17.7981 17.254C17.6061 17.078 17.3221 16.99 16.9461 16.99C16.6461 16.99 16.3381 17.044 16.0221 17.152C15.7061 17.26 15.3861 17.42 15.0621 17.632L14.6121 16.45C14.9641 16.218 15.3561 16.04 15.7881 15.916C16.2201 15.788 16.6561 15.724 17.0961 15.724C17.9201 15.724 18.5361 15.92 18.9441 16.312C19.3521 16.7 19.5561 17.28 19.5561 18.052V22H18.0921V21.508C17.8841 21.716 17.6361 21.874 17.3481 21.982C17.0641 22.09 16.7521 22.144 16.4121 22.144ZM16.7601 20.878C17.0081 20.878 17.2461 20.83 17.4741 20.734C17.7061 20.634 17.9121 20.494 18.0921 20.314V19.588C17.9201 19.504 17.7281 19.44 17.5161 19.396C17.3081 19.348 17.1001 19.324 16.8921 19.324C16.5201 19.324 16.2261 19.396 16.0101 19.54C15.7981 19.68 15.6921 19.876 15.6921 20.128C15.6921 20.364 15.7861 20.548 15.9741 20.68C16.1621 20.812 16.4241 20.878 16.7601 20.878ZM21.3398 22V14.014L22.8398 13.336V22H21.3398ZM27.2439 22.144C26.3799 22.144 25.6979 21.858 25.1979 21.286C24.6979 20.714 24.4479 19.932 24.4479 18.94C24.4479 18.284 24.5619 17.716 24.7899 17.236C25.0179 16.752 25.3399 16.38 25.7559 16.12C26.1759 15.856 26.6719 15.724 27.2439 15.724C27.8119 15.724 28.3039 15.854 28.7199 16.114C29.1359 16.374 29.4559 16.744 29.6799 17.224C29.9039 17.704 30.0159 18.274 30.0159 18.934C30.0159 19.598 29.9039 20.17 29.6799 20.65C29.4599 21.13 29.1419 21.5 28.7259 21.76C28.3099 22.016 27.8159 22.144 27.2439 22.144ZM27.2439 20.71C27.6479 20.71 27.9619 20.554 28.1859 20.242C28.4099 19.93 28.5219 19.494 28.5219 18.934C28.5219 18.374 28.4079 17.938 28.1799 17.626C27.9559 17.31 27.6439 17.152 27.2439 17.152C26.8399 17.152 26.5239 17.31 26.2959 17.626C26.0679 17.942 25.9539 18.38 25.9539 18.94C25.9539 19.492 26.0679 19.926 26.2959 20.242C26.5239 20.554 26.8399 20.71 27.2439 20.71Z" fill="white"/>
</svg>
