<svg width="35" height="35" viewBox="0 0 35 35" fill="none" xmlns="http://www.w3.org/2000/svg">
<path d="M17.5 0C7.64312 0 0 7.22293 0 16.9745C0 22.0756 2.09125 26.4855 5.495 29.5304C5.77937 29.7842 5.95438 30.1429 5.96313 30.5279L6.05937 33.6428C6.06638 33.872 6.12958 34.096 6.24342 34.295C6.35725 34.4941 6.51824 34.6621 6.71222 34.7844C6.90621 34.9066 7.12726 34.9794 7.35595 34.9962C7.58463 35.0131 7.81395 34.9735 8.02375 34.8809L11.4975 33.3497C11.7906 33.2185 12.1231 33.1966 12.4338 33.2797C14.0306 33.7172 15.7281 33.9534 17.5 33.9534C27.3569 33.9534 35 26.7305 35 16.9789C35 7.2273 27.3569 0 17.5 0Z" fill="url(#paint0_radial_390_241)"/>
<path d="M6.99128 21.94L12.1319 13.7852C12.3253 13.4782 12.5802 13.2146 12.8806 13.0111C13.181 12.8076 13.5204 12.6685 13.8772 12.6027C14.234 12.537 14.6006 12.5459 14.9539 12.6289C15.3071 12.712 15.6393 12.8674 15.9294 13.0853L20.02 16.1521C20.2026 16.2888 20.4248 16.3623 20.653 16.3615C20.8811 16.3607 21.1027 16.2857 21.2844 16.1477L26.8057 11.9565C27.5407 11.3966 28.5032 12.2803 28.0132 13.0634L22.8682 21.2138C22.6748 21.5208 22.4198 21.7844 22.1194 21.9879C21.819 22.1915 21.4797 22.3305 21.1229 22.3963C20.766 22.4621 20.3994 22.4531 20.0462 22.3701C19.693 22.287 19.3608 22.1317 19.0707 21.9138L14.98 18.847C14.7974 18.7103 14.5752 18.6367 14.3471 18.6375C14.119 18.6383 13.8973 18.7134 13.7157 18.8514L8.19441 23.0425C7.45941 23.6025 6.49691 22.7231 6.99128 21.94Z" fill="white"/>
<defs>
<radialGradient id="paint0_radial_390_241" cx="0" cy="0" r="1" gradientUnits="userSpaceOnUse" gradientTransform="translate(5.8625 34.999) scale(38.5 38.4989)">
<stop stop-color="#0099FF"/>
<stop offset="0.6" stop-color="#A033FF"/>
<stop offset="0.9" stop-color="#FF5280"/>
<stop offset="1" stop-color="#FF7061"/>
</radialGradient>
</defs>
</svg>
